HIERARCHY
ROOT Hips
{
	OFFSET 0.000000 0.000000 0.000000
	CHANNELS 6 Xposition Yposition Zposition Zrotation Yrotation Xrotation 
	JOINT LHipJoint
	{
		OFFSET 0.000000 0.000000 0.000000
		CHANNELS 3 Zrotation Yrotation Xrotation
		JOINT LeftUpLeg
		{
			OFFSET 1.363060 -1.794630 0.839290
			CHANNELS 3 Zrotation Yrotation Xrotation
			JOINT LeftLeg
			{
				OFFSET 2.448110 -6.726130 0.000000
				CHANNELS 3 Zrotation Yrotation Xrotation
				JOINT LeftFoot
				{
					OFFSET 2.562200 -7.039590 0.000000
					CHANNELS 3 Zrotation Yrotation Xrotation
					JOINT LeftToeBase
					{
						OFFSET 0.157640 -0.433110 2.322550
						CHANNELS 3 Zrotation Yrotation Xrotation
						End Site
						{
							OFFSET 0.000000 0.000000 0.000000
						}
					}
				}
			}
		}
	}
	JOINT RHipJoint
	{
		OFFSET 0.000000 0.000000 0.000000
		CHANNELS 3 Zrotation Yrotation Xrotation
		JOINT RightUpLeg
		{
			OFFSET -1.305520 -1.794630 0.839290
			CHANNELS 3 Zrotation Yrotation Xrotation
			JOINT RightLeg
			{
				OFFSET -2.542530 -6.985550 0.000000
				CHANNELS 3 Zrotation Yrotation Xrotation
				JOINT RightFoot
				{
					OFFSET -2.568260 -7.056230 0.000000
					CHANNELS 3 Zrotation Yrotation Xrotation
					JOINT RightToeBase
					{
						OFFSET -0.164730 -0.452590 2.363150
						CHANNELS 3 Zrotation Yrotation Xrotation
						End Site
						{
							OFFSET 0.000000 0.000000 0.000000
						}
					}
				}
			}
		}
	}
	JOINT LowerBack
	{
		OFFSET 0.000000 0.000000 0.000000
		CHANNELS 3 Zrotation Yrotation Xrotation
		JOINT Spine
		{
			OFFSET 0.028270 2.035590 -0.193380
			CHANNELS 3 Zrotation Yrotation Xrotation
			JOINT Spine1
			{
				OFFSET 0.056720 2.048850 -0.042750
				CHANNELS 3 Zrotation Yrotation Xrotation
				JOINT Neck
				{
					OFFSET 0.000000 0.000000 0.000000
					CHANNELS 3 Zrotation Yrotation Xrotation
					JOINT Neck1
					{
						OFFSET -0.054170 1.746240 0.172020
						CHANNELS 3 Zrotation Yrotation Xrotation
						JOINT Head
						{
							OFFSET 0.104070 1.761360 -0.123970
							CHANNELS 3 Zrotation Yrotation Xrotation
							End Site
							{
								OFFSET 0.000000 0.000000 0.000000
							}
						}
					}
				}
				JOINT LeftShoulder
				{
					OFFSET 0.000000 0.000000 0.000000
					CHANNELS 3 Zrotation Yrotation Xrotation
					JOINT LeftArm
					{
						OFFSET 3.362410 1.200890 -0.311210
						CHANNELS 3 Zrotation Yrotation Xrotation
						JOINT LeftForeArm
						{
							OFFSET 4.983000 -0.000000 -0.000000
							CHANNELS 3 Zrotation Yrotation Xrotation
							JOINT LeftHand
							{
								OFFSET 3.483560 -0.000000 -0.000000
								CHANNELS 3 Zrotation Yrotation Xrotation
								JOINT LeftFingerBase
								{
									OFFSET 0.000000 0.000000 0.000000
									CHANNELS 3 Zrotation Yrotation Xrotation
									JOINT LeftHandIndex1
									{
										OFFSET 0.715260 -0.000000 -0.000000
										CHANNELS 3 Zrotation Yrotation Xrotation
										End Site
										{
											OFFSET 0.000000 0.000000 0.000000
										}
									}
								}
								JOINT LThumb
								{
									OFFSET 0.000000 0.000000 0.000000
									CHANNELS 3 Zrotation Yrotation Xrotation
									End Site
									{
										OFFSET 0.000000 0.000000 0.000000
									}
								}
							}
						}
					}
				}
				JOINT RightShoulder
				{
					OFFSET 0.000000 0.000000 0.000000
					CHANNELS 3 Zrotation Yrotation Xrotation
					JOINT RightArm
					{
						OFFSET -3.136600 1.374050 -0.404650
						CHANNELS 3 Zrotation Yrotation Xrotation
						JOINT RightForeArm
						{
							OFFSET -5.241900 -0.000000 -0.000000
							CHANNELS 3 Zrotation Yrotation Xrotation
							JOINT RightHand
							{
								OFFSET -3.444170 -0.000000 -0.000000
								CHANNELS 3 Zrotation Yrotation Xrotation
								JOINT RightFingerBase
								{
									OFFSET 0.000000 0.000000 0.000000
									CHANNELS 3 Zrotation Yrotation Xrotation
									JOINT RightHandIndex1
									{
										OFFSET -0.622530 -0.000000 -0.000000
										CHANNELS 3 Zrotation Yrotation Xrotation
										End Site
										{
											OFFSET 0.000000 0.000000 0.000000
										}
									}
								}
								JOINT RThumb
								{
									OFFSET 0.000000 0.000000 0.000000
									CHANNELS 3 Zrotation Yrotation Xrotation
									End Site
									{
										OFFSET 0.000000 0.000000 0.000000
									}
								}
							}
						}
					}
				}
			}
		}
	}
}
MOTION
Frames: 11
Frame Time: 0.008333
3.290172 16.709416 0.264859 -179.158381 -62.079817 -169.800049 -11.129249 1.331464 -1.085833 -4.830782 23.686028 -23.582649 -1.836532 0.731421 29.892231 3.719188 22.152383 -12.966440 -1.978200 -0.000000 -48.114100 9.248953 -1.378373 6.669533 -1.291921 15.461057 -31.716869 1.126307 -1.705601 33.901121 -0.132151 2.083727 -8.128147 -0.003700 -0.000000 -67.536600 -1.396276 -0.911238 -8.089845 -0.134216 -1.059465 -3.998916 -2.567131 -1.217185 1.911579 10.495936 -15.751601 -12.547118 -0.714249 0.015158 -1.283994 0.000000 0.000000 0.000000 9.831295 18.952309 1.490774 -51.041175 15.779854 -21.119106 -178.370185 -49.530866 -179.984290 -1.850484 -2.558588 0.052795 0.073245 0.551679 0.000000 0.000000 0.000000 0.000000 0.000000 0.000000 0.000000 -0.350694 -7.025515 -1.829603 27.061965 33.391438 -6.431270 -178.870087 58.905758 179.822492 -17.013962 4.992402 -0.879549 0.431696 -0.753221 -0.000000 0.000000 0.000000 0.000000 0.000000 0.000000 0.000000 
3.246436 16.742684 0.277533 -178.856161 -59.696557 -169.861541 -11.217147 1.465859 -1.215134 -5.022332 25.381272 -23.205954 -1.949199 0.675624 28.753224 3.740263 22.529900 -12.544898 -1.845600 0.000000 -48.058600 9.098622 -1.465680 7.116110 -1.592526 16.585455 -31.955286 1.211237 -1.595741 32.527642 0.097507 3.241075 -7.114848 0.034200 0.000000 -68.115300 -0.672593 -0.941141 -8.468418 0.058870 -1.171110 -4.046924 -2.451209 -1.336632 2.034175 10.711151 -15.853052 -12.729135 -0.689474 0.020063 -1.335232 0.000000 0.000000 0.000000 9.680184 19.187860 1.578756 -51.678630 16.573699 -21.880901 -178.392365 -49.312159 -179.982744 -2.033176 -1.752146 0.042575 0.079747 0.523112 0.000000 0.000000 0.000000 0.000000 0.000000 0.000000 0.000000 -0.183200 -7.050029 -1.837213 27.704032 34.458227 -5.153209 -178.933019 58.821218 179.825974 -16.535617 5.144221 -0.879008 0.424072 -0.763481 -0.000000 0.000000 0.000000 0.000000 0.000000 0.000000 0.000000 
3.200936 16.783311 0.288497 -178.617691 -57.414827 -169.857625 -11.325766 1.612648 -1.304606 -5.229236 26.946946 -22.752020 -2.056227 0.600144 27.377862 3.754337 22.901851 -11.991323 -1.649700 0.000000 -47.963400 8.930525 -1.565575 7.547702 -1.887170 17.626122 -32.051120 1.309386 -1.464610 30.880877 0.321253 4.354651 -5.973147 0.109400 0.000000 -68.681400 0.089699 -0.984897 -8.860892 0.249555 -1.303507 -4.102180 -2.379658 -1.473871 2.129425 10.884065 -15.999268 -12.862926 -0.681983 0.022760 -1.372720 0.000000 0.000000 0.000000 9.546787 19.236650 1.632910 -51.720532 17.114322 -22.397484 -178.427316 -49.146356 -179.983063 -1.967631 -1.010218 0.027505 0.077122 0.497718 -0.000000 0.000000 0.000000 0.000000 0.000000 0.000000 0.000000 0.046534 -7.165861 -1.812094 28.307473 35.531980 -3.895209 -179.026017 58.797740 179.830644 -15.974558 5.262351 -0.867376 0.414697 -0.772221 -0.000000 0.000000 0.000000 0.000000 0.000000 0.000000 0.000000 
3.155405 16.829725 0.297413 -178.427717 -55.256249 -169.809734 -11.454032 1.766862 -1.360369 -5.442619 28.363410 -22.223351 -2.153097 0.507603 25.802325 3.762639 23.273463 -11.314394 -1.391500 0.000000 -47.824300 8.747041 -1.675609 7.961887 -2.177290 18.614238 -31.997646 1.417972 -1.315168 28.996713 0.530235 5.371398 -4.729389 0.221500 -0.000001 -69.210200 0.874547 -1.036903 -9.258385 0.432978 -1.449120 -4.164994 -2.357919 -1.620392 2.188481 11.016542 -16.200166 -12.937988 -0.692358 0.023063 -1.393783 0.000000 0.000000 0.000000 9.472158 19.055722 1.648404 -51.104106 17.373503 -22.592205 -178.474059 -49.088353 -179.985072 -1.681074 -0.407000 0.014188 0.066395 0.478016 -0.000000 0.000000 0.000000 0.000000 0.000000 0.000000 0.000000 0.348177 -7.392067 -1.748386 28.834193 36.624221 -2.694843 -179.145827 58.845935 179.836017 -15.378599 5.340549 -0.846741 0.404933 -0.779326 -0.000000 0.000000 0.000000 0.000000 0.000000 0.000000 0.000000 
3.111883 16.880219 0.305006 -178.266152 -53.235683 -169.759586 -11.602947 1.923518 -1.391965 -5.633294 29.627370 -21.611515 -2.236206 0.403613 24.075313 3.765264 23.642948 -10.532031 -1.076300 -0.000000 -47.636900 8.550002 -1.790892 8.347354 -2.443218 19.555650 -31.768384 1.537883 -1.149372 26.902969 0.720335 6.263286 -3.403443 0.366200 0.000000 -69.667000 1.684635 -1.096895 -9.635643 0.608783 -1.606412 -4.229745 -2.392162 -1.773479 2.211765 11.099262 -16.405150 -12.940604 -0.718429 0.021059 -1.395303 0.000000 0.000000 0.000000 9.448001 18.698768 1.629447 -49.735453 17.207938 -22.401854 -178.521443 -49.252385 -179.988557 -1.203157 0.002002 0.005925 0.047485 0.466207 -0.000000 0.000000 0.000000 0.000000 0.000000 0.000000 0.000000 0.683550 -7.692096 -1.658107 29.310215 37.695685 -1.577435 -179.281438 58.951604 179.841726 -14.780303 5.386135 -0.820605 0.395081 -0.784810 -0.000000 0.000000 0.000000 0.000000 0.000000 0.000000 0.000000 
3.072147 16.932787 0.311138 -178.125573 -51.380955 -169.720388 -11.765410 2.076820 -1.405930 -5.793032 30.731351 -20.930976 -2.301891 0.291417 22.253565 3.763147 24.007924 -9.665605 -0.711600 0.000000 -47.395400 8.346211 -1.909683 8.707038 -2.693993 20.479260 -31.379699 1.664461 -0.973206 24.666233 0.884097 6.982986 -2.034668 0.531000 -0.000000 -70.039800 2.479720 -1.155403 -9.995090 0.766528 -1.761993 -4.296410 -2.486955 -1.919400 2.201306 11.165028 -16.636219 -12.855959 -0.757864 0.016762 -1.373355 0.000000 0.000000 0.000000 9.527229 18.120153 1.579748 -47.627079 16.554525 -21.865001 -178.573702 -49.782932 -179.992783 -0.637919 0.129013 0.002890 0.024549 0.465414 -0.000000 0.000000 0.000000 0.000000 0.000000 0.000000 0.000000 1.092630 -8.100985 -1.536103 29.674812 38.749207 -0.585054 -179.422732 59.120683 179.847054 -14.243836 5.391512 -0.792057 0.386840 -0.788517 -0.000000 0.000000 0.000000 0.000000 0.000000 0.000000 0.000000 
3.038028 16.985509 0.316792 -177.993386 -49.716366 -169.726071 -11.936168 2.221963 -1.410639 -5.894698 31.682294 -20.182454 -2.348272 0.176511 20.398270 3.755680 24.356169 -8.745669 -0.310301 0.000000 -47.095300 8.142635 -2.027584 9.032242 -2.911442 21.373736 -30.825333 1.796892 -0.791299 22.340874 1.020047 7.519984 -0.652082 0.702499 0.000000 -70.316200 3.237980 -1.210070 -10.321382 0.900828 -1.910148 -4.359401 -2.644546 -2.052286 2.166378 11.234165 -16.856452 -12.667166 -0.803731 0.010609 -1.323629 0.000000 0.000000 0.000000 9.691643 17.371092 1.515473 -44.767636 15.256764 -21.066052 -178.630513 -50.882641 -179.997175 -0.059309 -0.055202 0.001467 -0.000036 0.476798 -0.000000 0.000000 0.000000 0.000000 0.000000 0.000000 0.000000 1.559580 -8.595461 -1.397099 29.945576 39.723518 0.255958 -179.553416 59.333580 179.851560 -13.804154 5.366220 -0.764703 0.380312 -0.790432 -0.000000 0.000000 0.000000 0.000000 0.000000 0.000000 0.000000 
3.010683 17.036613 0.322717 -177.859072 -48.269543 -169.798069 -12.105954 2.356012 -1.411604 -5.923684 32.488004 -19.377430 -2.375264 0.063542 18.569231 3.742258 24.671817 -7.806333 0.111200 -0.000001 -46.734600 7.949620 -2.140479 9.316926 -3.081769 22.217335 -30.116677 1.932455 -0.609333 19.996149 1.128026 7.876274 0.709598 0.866100 0.000000 -70.493600 3.920548 -1.261282 -10.608802 1.003870 -2.046674 -4.415381 -2.860926 -2.168796 2.116438 11.345814 -17.040587 -12.360866 -0.847113 0.003197 -1.242305 0.000000 0.000000 0.000000 9.915222 16.488577 1.458648 -41.194796 13.221566 -20.162868 -178.704934 -52.780844 179.998677 0.482969 -0.536574 -0.003268 -0.023640 0.499329 -0.000000 0.000000 0.000000 0.000000 0.000000 0.000000 0.000000 2.090220 -9.157033 -1.255143 30.121104 40.553971 0.919269 -179.656802 59.575738 179.854829 -13.494058 5.316314 -0.741551 0.375458 -0.790316 -0.000000 0.000000 0.000000 0.000000 0.000000 0.000000 0.000000 
2.990779 17.084569 0.329798 -177.712132 -47.066665 -169.953263 -12.264111 2.477439 -1.413153 -5.868770 33.157719 -18.528599 -2.384659 -0.043095 16.818132 3.721912 24.935271 -6.882724 0.533800 -0.000000 -46.317300 7.779475 -2.242737 9.551657 -3.184791 22.969043 -29.269347 2.068469 -0.432643 17.701689 1.210545 8.075434 2.016476 1.011200 -0.000000 -70.581800 4.486677 -1.315924 -10.848970 1.070407 -2.172995 -4.462224 -3.120035 -2.272305 2.055818 11.541227 -17.165091 -11.933197 -0.876767 -0.004623 -1.127732 0.000000 0.000000 0.000000 10.157636 15.502490 1.432882 -36.984816 10.460315 -19.336202 -178.821566 -55.699583 179.994568 1.014787 -1.249730 -0.015021 -0.045057 0.529284 -0.000000 0.000000 0.000000 0.000000 0.000000 0.000000 0.000000 2.682091 -9.756265 -1.126798 30.208020 41.170305 1.386190 -179.718809 59.830241 179.856646 -13.330587 5.249454 -0.724215 0.371820 -0.787913 -0.000000 0.000000 0.000000 0.000000 0.000000 0.000000 0.000000 
2.978645 17.128247 0.338680 -177.547357 -46.126430 -170.197757 -12.399629 2.586503 -1.417925 -5.727700 33.699490 -17.653613 -2.380062 -0.139390 15.184889 3.693821 25.127277 -6.007150 0.938000 -0.000000 -45.854900 7.645320 -2.327275 9.724832 -3.198565 23.575678 -28.305171 2.202095 -0.265608 15.523034 1.272254 8.158073 3.237707 1.132700 -0.000000 -70.602100 4.898397 -1.389476 -11.032119 1.100010 -2.298533 -4.500206 -3.390551 -2.375329 1.979983 11.854601 -17.212336 -11.394941 -0.882329 -0.011988 -0.981893 0.000000 0.000000 0.000000 10.395147 14.411356 1.455991 -32.272760 7.150967 -18.743498 -179.004193 -59.821213 179.989589 1.632243 -2.111401 -0.037997 -0.064249 0.561544 -0.000000 0.000000 0.000000 0.000000 0.000000 0.000000 0.000000 3.323492 -10.352743 -1.027582 30.213327 41.515690 1.648144 -179.731671 60.081476 179.856983 -13.316145 5.173257 -0.713605 0.368885 -0.783102 -0.000000 0.000000 0.000000 0.000000 0.000000 0.000000 0.000000 
2.973662 17.166917 0.350081 -177.354540 -45.456952 -170.531361 -12.504785 2.684619 -1.426315 -5.506369 34.117800 -16.773348 -2.365781 -0.222175 13.693684 3.657719 25.231727 -5.206457 1.306300 0.000001 -45.368600 7.557482 -2.386821 9.823842 -3.103568 23.980389 -27.250713 2.331516 -0.110779 13.514152 1.319264 8.174729 4.348303 1.232100 -0.000000 -70.584301 5.133763 -1.503428 -11.146841 1.099363 -2.439712 -4.531504 -3.630238 -2.497848 1.876271 12.295551 -17.174445 -10.772853 -0.858471 -0.018337 -0.811095 0.000000 0.000000 0.000000 10.655030 13.164659 1.533591 -27.282402 3.643373 -18.475095 -179.251631 -65.236773 179.982366 2.464275 -3.051649 -0.079297 -0.081804 0.591469 -0.000000 0.000000 0.000000 0.000000 0.000000 0.000000 0.000000 3.985201 -10.900167 -0.968624 30.144794 41.563025 1.711208 -179.697033 60.322328 179.856025 -13.436794 5.093879 -0.709425 0.366293 -0.776018 -0.000000 0.000000 0.000000 0.000000 0.000000 0.000000 0.000000 
